/* XPM */
static char *result[] = {
/* columns rows colors chars-per-pixel */
"47 50 240 2 ",
"   c #1D2B56",
".  c #1D2C5B",
"X  c #1D2C63",
"o  c #1D2D6C",
"O  c #1B2D74",
"+  c #1A2E7A",
"@  c #172F7C",
"#  c #1B317C",
"$  c #173179",
"%  c #2B2A64",
"&  c #21296D",
"*  c #2B2A6D",
"=  c #222A66",
"-  c #372869",
";  c #232A74",
":  c #232B7B",
">  c #2A2C7D",
",  c #2C2875",
"<  c #352974",
"1  c #332C7B",
"2  c #392A76",
"3  c #23317E",
"4  c #2C357A",
"5  c #38357D",
"6  c #482A77",
"7  c #46367A",
"8  c #40276E",
"9  c #45457E",
"0  c #564D78",
"q  c #56527B",
"w  c #675A7C",
"e  c #153483",
"r  c #1D3383",
"t  c #1C3B84",
"y  c #15398B",
"u  c #193889",
"i  c #153E91",
"p  c #1F2F82",
"a  c #2C2C83",
"s  c #232983",
"d  c #233584",
"f  c #2B3484",
"g  c #21348A",
"h  c #243B8B",
"j  c #2B3C8B",
"k  c #263A84",
"l  c #343A8B",
"z  c #373788",
"x  c #2B3C91",
"c  c #373C91",
"v  c #322D84",
"b  c #483785",
"n  c #523B82",
"m  c #462F85",
"M  c #1A4B9C",
"N  c #174496",
"B  c #1F4485",
"V  c #274788",
"C  c #364685",
"Z  c #2B5388",
"A  c #375B85",
"S  c #234692",
"D  c #2B4493",
"F  c #234B95",
"G  c #2B4C98",
"H  c #374897",
"J  c #29569B",
"K  c #39559A",
"L  c #3B6288",
"P  c #3F6D9A",
"I  c #1D55A2",
"U  c #285BA4",
"Y  c #3659A3",
"T  c #2464AA",
"R  c #2A67A8",
"E  c #3767A7",
"W  c #2B73AD",
"Q  c #2D7BB3",
"!  c #3773B0",
"~  c #484A85",
"^  c #594789",
"/  c #485585",
"(  c #565684",
")  c #454999",
"_  c #514C9B",
"`  c #4B5598",
"'  c #515F91",
"]  c #66588B",
"[  c #695791",
"{  c #476885",
"}  c #596786",
"|  c #4C6299",
" . c #5C7895",
".. c #567091",
"X. c #766786",
"o. c #687888",
"O. c #797888",
"+. c #78699A",
"@. c #69698B",
"#. c #4A5AA4",
"$. c #5857A4",
"%. c #645EA8",
"&. c #466AA8",
"*. c #5667A7",
"=. c #5878A6",
"-. c #4C6BB1",
";. c #4776B4",
":. c #5B75B5",
">. c #4C6FAB",
",. c #6865A7",
"<. c #6879B7",
"1. c #7975B6",
"2. c #6F70AC",
"3. c #85758C",
"4. c #88779B",
"5. c #997997",
"6. c #896E8E",
"7. c #A97E90",
"8. c #847AB8",
"9. c #8379A4",
"0. c #338ABC",
"q. c #2F81B7",
"w. c #7B8489",
"e. c #6D869C",
"r. c #788992",
"t. c #7D969D",
"y. c #5A87B6",
"u. c #6387A7",
"i. c #7986AB",
"p. c #7998A8",
"a. c #6486B6",
"s. c #7281B5",
"d. c #6E92AA",
"f. c #5A819F",
"g. c #5A90C8",
"h. c #779BC8",
"j. c #6A90C7",
"k. c #76A0C7",
"l. c #76A3D4",
"z. c #8A8987",
"x. c #95888B",
"c. c #979889",
"v. c #968494",
"b. c #969C96",
"n. c #859197",
"m. c #A79B8B",
"M. c #B89A8B",
"N. c #A98397",
"B. c #B98897",
"V. c #A7959B",
"C. c #B8979A",
"Z. c #BC838B",
"A. c #96A497",
"S. c #A7A889",
"D. c #B8B48A",
"F. c #AAB598",
"G. c #B7AD8E",
"H. c #9685A6",
"J. c #8786BA",
"K. c #9292B1",
"L. c #A798AA",
"P. c #B293A8",
"I. c #8AA5A7",
"U. c #97A8A5",
"Y. c #9DB6A6",
"T. c #B9A9A0",
"R. c #AABAA6",
"E. c #B8A6B7",
"W. c #AFB0A9",
"Q. c #C98B8D",
"!. c #C9938C",
"~. c #C48B95",
"^. c #CA979B",
"/. c #D29B98",
"(. c #D19F8A",
"). c #C5A78B",
"_. c #D8A38B",
"`. c #C8B68C",
"'. c #D8B88C",
"]. c #D7A49B",
"[. c #CEB796",
"{. c #E7B48D",
"}. c #E5AD9A",
"|. c #E9B59C",
" X c #F5BB9D",
".X c #F2B49C",
"XX c #E9A98E",
"oX c #C89DA6",
"OX c #CFA4A4",
"+X c #CBA8A8",
"@X c #D2A5A4",
"#X c #D5AAA5",
"$X c #DBACA3",
"%X c #D3ACAB",
"&X c #D4ABA8",
"*X c #D8B4A8",
"=X c #CFB1B5",
"-X c #CEB6BC",
";X c #D2B3B4",
":X c #D1B9BC",
">X c #CAB1AD",
",X c #E5B7A5",
"<X c #ECB5A0",
"1X c #B9C3B0",
"2X c #D6C493",
"3X c #E7C597",
"4X c #F5CD9C",
"5X c #F4C598",
"6X c #EECC97",
"7X c #D6C6A9",
"8X c #C6C5B4",
"9X c #DAC4B2",
"0X c #C6C4AA",
"qX c #E4C9A6",
"wX c #F5CDA3",
"eX c #F1C7A7",
"rX c #F6D4A4",
"tX c #F5DCA3",
"yX c #F6DAAD",
"uX c #E9C8B3",
"iX c #F1CDB2",
"pX c #F3E7A8",
"aX c #F3EDB3",
"sX c #898BC3",
"dX c #988CC2",
"fX c #8B95C9",
"gX c #A396C7",
"hX c #8BA7C6",
"jX c #B4A8D1",
"kX c #B3B4CC",
"lX c #CCBDC5",
"zX c #D1BDC1",
"xX c #BAC2D3",
"cX c #CFC1C9",
"vX c #D0C5CC",
"bX c #C6C6D3",
"nX c #D1C9D2",
"mX c #D0C7D0",
"MX c #D5CFE5",
"NX c None",
/* pixels */
"NXNXNXNXNXNXNXNXNXNXNXNXNXNXNXNXNXNXNXNXNXNXNXNXNXNXNXNXNXNXNXNXNXNXNXNXNXNXNXNXNXNXNXNXNXNXNX",
"NXNXNXNXNXNXNXNXNXNXNXNXNXNXNXNXNXNXNXNXNXNXNXNXNXNXNXNXNXNXNXNXNXNXNXNXNXNXNXNXNXNXNXNXNXNXNX",
"NXNXNXNXNXNXNXNXNXNXNXNXNXNXNXNXNXNXNXNXNXNXNXNXNXNXNXNXNXNXNXNXNXNXNXNXNXNXNXNXNXNXNXNXNXNXNX",
"NXNXNXNXNXNXNXNXNXNXNXNXNXNXNXNXNXNX! ! R E R R R R E ! ! ;.NXNXNXNXNXNXNXNXNXNXNXNXNXNXNXNXNX",
"NXNXNXNXNXNXNXNXNXNXNXNXNXNXNX! U J F S F F F F S F S S F F U E NXNXNXNXNXNXNXNXNXNXNXNXNXNXNX",
"NXNXNXNXNXNXNXNXNXNXNXNXNXE Y F h u u r t u g u t t # # # r d S G E NXNXNXNXNXNXNXNXNXNXNXNXNX",
"NXNXNXNXNXNXNXNXNXNXNX;.Y G g r r @ + @ r p p + # O O O O O O 3 h D K ! NXNXNXNXNXNXNXNXNXNXNX",
"NXNXNXNXNXNXNXNXNXNX&.K j d d # O o o O r e e @ # # # O 3 3 3 f f j h F Y NXNXNXNXNXNXNXNXNXNX",
"NXNXNXNXNXNXNXNXNX! H V > ; o o X X X o O # # # # d d d f v l l c c v x x J NXNXNXNXNXNXNXNXNX",
"NXNXNXNXNXNXNXNX>.K V > & = . . .     . X O O @ r d x H H ) ) ) ) c c l l j J NXNXNXNXNXNXNXNX",
"NXNXNXNXNXNXNX;.K C 4 * = = .           X X o # r j H #.$.$.$.%.$._ ) m l f x Y NXNXNXNXNXNXNX",
"NXNXNXNXNXNXy.E C 4 * % = = X .         X $ @ r h H ) $.%.,.2.8.1.%.$._ c a f h Y NXNXNXNXNXNX",
"NXNXNXNXNXy.&.C 4 4 * % = ; O & . . .   . o e u x c _ -.<.8.dXjXjX8.%._ ) z a d S E NXNXNXNXNX",
"NXNXNXNXNX;.K H 1 < * * , s g + o o o X . X o u x x #.%.1.sXgXMXMXdX8.%.) l a : r F NXNXNXNXNX",
"NXNXNXNXy.&.) b 5 2 < , : f g p $ $ $ o X X o @ i c _ :.j.sXdXjXjXdX8.,._ m a : : h Y NXNXNXNX",
"NXNXNXNX:.&.~ m 2 - - & ; : p i y y y y @ O X + g x ) :.h.fXfXdXdXdX8.,._ c a : ; # G NXNXNXNX",
"NXNXNXy.*.$.b m 8 - % % & > g i y y N M M N e O # h H -.j.l.fXsXsX1.1.%._ c a , O + g Y NXNXNX",
"NXNXNXa.*.$.b 6 8 - % = * s g u e y M M I T M y e u x &.j.l.l.<.s.1.,.$.) c s & & ; d K NXNXNX",
"NXNXk.y.*._ n 6 8 - - * : : : O O @ y N M I I N y y g Y g.g.g.<.<.:.-.#.#.c s O & O d D &.NXNX",
"NXNXk.<.%.^ n 6 8 8 < < > : ; & o O e e e N M N y y y x Y ;.;.-.-.-.-.#.H x s ; & & : j E NXNX",
"NXNXk.s.,.^ 7 7 6 6 7 v > : O O o o O + @ y M M M i y i M H G Y Y Y K K D x s : ; ; : j Y NXNX",
"NXNXk.s.,.] ^ n 6 6 m 1 1 : : ; + + O $ @ y N I I M N i M M M x h h g g x g s s s : a f K NXNX",
"NXNXk.i.2.[ ] 7 n n b 7 5 1 4 ; @ # # $ @ e i I T T T T T T I x r # r r r g s s s s v l K NXNX",
"NXNXh.i.2.[ [ ^ ^ 7 b b 5 9 5 B 3 # e e @ e y N T T W q.0.0.R F d d # r r : : : : a v z #.NXNX",
"NXNXl.i.J.2.@.[ [ ^ n ^ ~ 9 A C A . B $ B B B B F U W q.0.0.q.U D k r d : ; ; , , 1 v z ` NXNX",
"NXNXhXK.H.+.4.+.[ [ [ ( ( ( q 9 A A Z A B B B B Z F Z I I W q.W J V d O : ; , , < 2 5 C | NXNX",
"NXNXhXK.K.H.4.4.6.6.X.w ] @.w } q { L A A Z A Z Z J Z Z Z I W W R F j > ; , < < - 2 5 ~ | NXNX",
"NXNXkXL.L.5.5.5.7.5.3.X.3.O.O.O.w.o.o.q A A L L L L Z Z Z A R P E G j f 1 1 < - 2 8 7 ~ >.NXNX",
"NXNXkXE.P.5.7.7.7.7.7.7.x.x.z.z.z.w.w.o.o.q { { q { L A P P P P Y K c f 5 5 2 5 7 7 7 / =.NXNX",
"NXNXxXjXP.P.7.oXB.Z.7.M.M.m.m.m.S.c.z.w.w.w.o.o.f.w f.f.f.f.f.P E K D l 5 5 b 7 9 9 ~ / :.NXNX",
"NXNXbXjXgXB.oXB.Z.Q.Z.!.M.M.D.D.D.S.S.S.c.c.z.w.t.r.r.r.e.e.u.f.&.Y K ) / C ~ / ~ ~ q ' a.NXNX",
"NXNXNXlX=XP.oX~.Q.!.!.!.(.).).D.D.D.D.S.S.S.S.S.A.S.n.t.t.t.d.u. .&.&.&.| | ' ( q q ( | NXNXNX",
"NXNXNXbX=XoXP.^.^.^././._.(._.'.'.`.`.`.D.D.D.F.F.F.A.I.I.I.p.d.u.u.u.u. . . .} q 0 ( :.NXNXNX",
"NXNXNXnXlX+XoXOX^././.].}._.XX_.{.'.'.'.2X2X`.`.D.1XY.Y.Y.Y.I.I.p.p.d.d.e.2.+.w w 0 ..a.NXNXNX",
"NXNXNXNXvX=X+XOXOXOX/.}.XXXXXX{.{.{.{.3X2X6X2X'.0X`.F.1X1X1XY.Y.U.I.I.p.p.r.3.w w w n.NXNXNXNX",
"NXNXNXNXnX:X;XOXOX/./.}.}..X X X5X5X6X5X6X2X6X'.2X0X1X1X8X8XR.R.U.U.U.I.b.v.x.3.X.3.K.NXNXNXNX",
"NXNXNXNXNXmX:X%X@X@X].}..X XrX4X4X4X4X6X5X6X6X3X7X7X7X7X9X8X>XT.T.W.L.V.b.N.5.3.5.K.NXNXNXNXNX",
"NXNXNXNXNXNXvX;X&X@X@X$X|. XrXtXpXtXtXtXtXtXwXqXqX7X7X9X9X9X[.>X+XT.C.V.V.V.N.5.L.NXNXNXNXNXNX",
"NXNXNXNXNXNXnXzX=X#X&X,X<X XwXpXaXaXpXpXtXrXwXqX3XqXqX9X9X9X*XOX~.C.C.C.N.N.B.E.lXNXNXNXNXNXNX",
"NXNXNXNXNXNXNXnX:X%X&X$X<X.X5XrXaXaXaXpXrXwXwXeXiXiXuXuXuX*X].!.Q.Q.Z.Z.~.oX>XlXNXNXNXNXNXNXNX",
"NXNXNXNXNXNXNXNXvX:X%X@X,X.X XwXtXpXpXyXyXeXeXeXiXuX,X*X$X/./.Q.Q.~.~.oX>X:XmXNXNXNXNXNXNXNXNX",
"NXNXNXNXNXNXNXNXNXvX:X&X].|. X X XwXrXwXeX X}.,X,XuX,X$X$X/././.@X@X&X;XlXnXNXNXNXNXNXNXNXNXNX",
"NXNXNXNXNXNXNXNXNXNXNXzX;X$X<X.X.X X X X<X<X$X,X&X$X#X&X@X/.OX%X%X;X:XvXNXNXNXNXNXNXNXNXNXNXNX",
"NXNXNXNXNXNXNXNXNXNXNXNXlXzX;X$X$X}.<X$X$X@X&X&X&X%X%X%XOX&X%X;XzXlXvXNXNXNXNXNXNXNXNXNXNXNXNX",
"NXNXNXNXNXNXNXNXNXNXNXNXNXNXvXzX;X;X&X&X#X+XOX@X&X+X&X=X;X-XzXvXmXNXNXNXNXNXNXNXNXNXNXNXNXNXNX",
"NXNXNXNXNXNXNXNXNXNXNXNXNXNXNXNXvXvXzX:X-X=X=X=X-X-X-XzXvXmXmXNXNXNXNXNXNXNXNXNXNXNXNXNXNXNXNX",
"NXNXNXNXNXNXNXNXNXNXNXNXNXNXNXNXNXNXNXNXmXvXvXvXmXnXnXNXNXNXNXNXNXNXNXNXNXNXNXNXNXNXNXNXNXNXNX",
"NXNXNXNXNXNXNXNXNXNXNXNXNXNXNXNXNXNXNXNXNXNXNXNXNXNXNXNXNXNXNXNXNXNXNXNXNXNXNXNXNXNXNXNXNXNXNX",
"NXNXNXNXNXNXNXNXNXNXNXNXNXNXNXNXNXNXNXNXNXNXNXNXNXNXNXNXNXNXNXNXNXNXNXNXNXNXNXNXNXNXNXNXNXNXNX",
"NXNXNXNXNXNXNXNXNXNXNXNXNXNXNXNXNXNXNXNXNXNXNXNXNXNXNXNXNXNXNXNXNXNXNXNXNXNXNXNXNXNXNXNXNXNXNX"
};
