/* XPM */
static char *e91702a19fbd4817fa859d9431eb0026Ie4WKfWCVDoJCffJ[] = {
/* columns rows colors chars-per-pixel */
"50 50 182 2 ",
"   c None",
".  c #050405",
"X  c #090C03",
"o  c #06050A",
"O  c #09070E",
"+  c #050809",
"@  c #0C0C0D",
"#  c #0F1502",
"$  c #0D120D",
"%  c #0C190B",
"&  c #141C02",
"*  c #151A0E",
"=  c #11120D",
"-  c #0E0D12",
";  c #100F13",
":  c #120F1C",
">  c #0E1212",
",  c #0F1913",
"<  c #131214",
"1  c #161814",
"2  c #1A1D14",
"3  c #15131A",
"4  c #18171B",
"5  c #151B1A",
"6  c #1C1C1C",
"7  c #162001",
"8  c #1A2504",
"9  c #1D2B01",
"0  c #1B230C",
"q  c #1E2A0F",
"w  c #1C2312",
"e  c #122018",
"r  c #1D341D",
"t  c #202C05",
"y  c #232E0E",
"u  c #243403",
"i  c #26320D",
"p  c #28340D",
"a  c #24390C",
"s  c #2D3F08",
"d  c #242C12",
"f  c #20231B",
"g  c #262A1D",
"h  c #292E1F",
"j  c #273210",
"k  c #2F3B16",
"l  c #2B331A",
"z  c #2E381A",
"x  c #2A3513",
"c  c #313F13",
"v  c #313B1D",
"b  c #171320",
"n  c #191522",
"m  c #1D1A23",
"M  c #1F1A28",
"N  c #211E27",
"B  c #211C2A",
"V  c #251E32",
"C  c #232224",
"Z  c #2A2D26",
"A  c #25242B",
"S  c #29262E",
"D  c #212A2C",
"F  c #2B2B2B",
"G  c #2E3323",
"H  c #2F3228",
"J  c #31342A",
"K  c #343928",
"L  c #343D21",
"P  c #242331",
"I  c #292435",
"U  c #2E2C32",
"Y  c #2B2439",
"T  c #2E2D3B",
"R  c #262E32",
"E  c #312E36",
"W  c #322D3D",
"Q  c #2E3335",
"!  c #333335",
"~  c #383A34",
"^  c #343339",
"/  c #373939",
"(  c #3A3A3A",
")  c #2E4105",
"_  c #33450C",
"`  c #354D03",
"'  c #3A5601",
"]  c #3E560B",
"[  c #364712",
"{  c #384A12",
"}  c #394819",
"|  c #37441B",
" . c #3F5511",
".. c #3A4229",
"X. c #38433F",
"o. c #3D4337",
"O. c #435F08",
"+. c #45610C",
"@. c #496216",
"#. c #435125",
"$. c #40443A",
"%. c #2E2640",
"&. c #302741",
"*. c #322B41",
"=. c #372F4A",
"-. c #333342",
";. c #3A3544",
":. c #3D3946",
">. c #3B344A",
",. c #3B3050",
"<. c #3D3850",
"1. c #403F46",
"2. c #413B4D",
"3. c #443B53",
"4. c #493C63",
"5. c #3D414F",
"6. c #434443",
"7. c #46434D",
"8. c #4B4C4A",
"9. c #4F514B",
"0. c #475D48",
"q. c #51564E",
"w. c #474250",
"e. c #494256",
"r. c #4C455A",
"t. c #4D4B52",
"y. c #524C5C",
"u. c #545554",
"i. c #575D52",
"p. c #56545A",
"a. c gray35",
"s. c #5B5E54",
"d. c #5E6754",
"f. c #656B5C",
"g. c #4E4563",
"h. c #4E4C64",
"j. c #524B64",
"k. c #574E68",
"l. c #584F6A",
"z. c #53456E",
"x. c #5D556C",
"c. c #544670",
"v. c #625D6D",
"b. c #615677",
"n. c #665C77",
"m. c #675C7D",
"M. c #626262",
"N. c #656961",
"B. c #6E6E6F",
"V. c #6C7363",
"C. c #6D7168",
"Z. c #717A67",
"A. c #72756F",
"S. c #6D6C70",
"D. c #706E74",
"F. c #726D7B",
"G. c #747475",
"H. c #75737A",
"J. c #78777A",
"K. c #7B7B7B",
"L. c #6C6289",
"P. c #706783",
"I. c #776F85",
"U. c #72658D",
"Y. c #787186",
"T. c #7B7D82",
"R. c #7F7989",
"E. c #776599",
"W. c #796A95",
"Q. c #8C7FA3",
"!. c #818081",
"~. c #8B8B8C",
"^. c #888491",
"/. c #8B839A",
"(. c #908E93",
"). c #939197",
"_. c #9F98AE",
"`. c #A09DA7",
"'. c #A29CAC",
"]. c #A9A7AC",
"[. c #AEADB0",
"{. c #C0BEC5",
/* pixels */
"                                                                                                    ",
"                                                                                                    ",
"                                          6 f C 1 1 N 6 6                                           ",
"                                  4 6 A U ! ( ! 6 6 ~ ( ~ U Z 6 4                                   ",
"                              > < B R ! 6.a.v.q.Z C 9.f.a.1.! I N < ;                               ",
"                          < 4 M 3 m Y ;.p.H.T.f.F F s.Q.H.p.;.Y n : m 4 3                           ",
"                        6 C M %.V 3 m Y 3.s.6.U F F U $.s.w.Y N : Y T C C 6                         ",
"                      $ 6 U w.=.P 3 m 6 h [ l G F U G l [ h 6 6 > P =.3.E 6 @                       ",
"                  < < @ C r.b.-.1 e j z K H w q l H i w H K z j w > -.b.r.C @ < <                   ",
"                  < @ 6 w.m.h.e 1 d J :.j.y.Q % k c % Q y.h.2.J d < e h.F.w.6 @ <                   ",
"                @ = < U n.L.D > M >.k.I.^.Y.X.% s s $ X.I.!.I.x.>.N > D L.n.T > @ =                 ",
"              @ ; * 2 7.U.5.> V z.W./.`.].T.r w [ [ 2 r T.]._.Q.W.c.V > <.L.7.2 * < @               ",
"              @ < i l r.h.5 n 4.E./.'.[.(.0.a [ g g [ a 0.(.[.'.Q.E.4.n 5 h.g.l i = @               ",
"            @ = 1 _ H g.A > %.c.b._.{.~.a.r a [ C f { a r u.~.{._.b.c.%.> A g.H _ 1 - @             ",
"            @ < w [ E >.> b ,.3.U ).[.8.g % q } G Z } q % Z 9.].).U 3.,.n $ >.U _ f < @             ",
"          @ @ < l c W A @ P ,.C / ).K.G p 0 $ v #.#.G % 0 p z K.(./ A =.P @ A W [ l < @ @           ",
"          @ ; 2 l l T , 3 Y Z f ..J.S.Z i y @ % @.@.* O i i Z B.G...f S I 4 , T l l 1 > @           ",
"          @ < 6 h G R $ B N p N z 8.G.6.A m 3 $ +.O.@ : n A 6.G.9.z f j N B $ R G h 6 < @           ",
"          @ 2 6 h 5.D > I m d w k ~ B.D.r.Y 4 $ O.O.% b Y r.S.S.~ k w y 6 I < D :.Z 6 6 @           ",
"        @ < N 6 W r.5 4 I A 2 j x ~ G.F.z.V - @     @ - V j.F.G./ l j 6 S I 4 5 h.W m w < @         ",
"        @ < C 6 :.<.> n / $.Z 6 f 8.F.x.&.: O +     + O : &.x.H.8.w 6 Z $./ 6 > <.:.6 6 < =         ",
"        = < 1 A :.T $ N 6.i.o.$.8.S.v.&.: o o         o O : &.x.B.8.$.o.i.7.M $ W ;.A 1 < ;         ",
"        > < 4 ^ T A $ S 8.f.d.f.J.Q.:.b O .             . O n 3.R.K.f.d.f.8.S $ A T ^ 4 < =         ",
"        @ > C U m 4 < U q.Z.V.V.^.x.B - @ g             g O - I x.^.G.V.Z.q.E < 4 m R B < @         ",
"        @ m C 6 < < m ~ q.V.N.Q.I.>.3 o < L             L 1 o 3 >.Y.T.N.V.q.~ 6 < 3 6 C 6 -         ",
"        @ 6 4 ; ; < A ! 9.A.K./.k.n -     |             |     O n k./.J.C.9.~ A 4 - ; 4 6 @         ",
"        @ @ @ - < f 6 F q.J.^.P.=.-                             : =.P.^.J.u.F 6 2 3 - @ - @         ",
"          @ 3 3 2 O.v C u.J.Y.3.m                                 B 3.Y.H.u.C | ] 2 < 3 @           ",
"          - - 8 u _ +.N p.v.j.I 4                                 2 V j.v.p.N O._ u 8 - -           ",
"          @ & u 8 ) _ S t.y.>.n 2 w                             2 2 n :.y.t.A _ ) 9 u & @           ",
"            9 9 ' ` y E y.r.I ; < y                             d < ; I r.y.! y ` ' 9 9             ",
"            # 9 9 ) 2 ^ r.>.B @ @ * w                         w * @ @ B 2.r.! 2 s 8 9 #             ",
"            u & 9 s 6 ( 3.W b     @ 0 2                     2 0 @     n &.3.;.6 s t & u             ",
"              X & 8 N :.3.I 3         0 <                 ; 0         3 V 2.1.N 8 & X               ",
"              & # @ C :.=.B ;                                         ; N ;.1.N @ # &               ",
"                X < S -.I 3 3                                         3 : I ;.S ; X                 ",
"                  < A W A 3 1                                         < 4 A W S <                   ",
"                  1 A I N : < d                                     d 1 : B I A 4                   ",
"                  < N B N ; @ f                                     0 - ; m A N <                   ",
"                  ; 3 m n ; X = d                                 d = O ; n m 3 ;                   ",
"                    ; 3 3 ; O o 0 d                             d 0 o o ; 3 3 ;                     ",
"                      ; ; ; X . @ y d                         d y = . X - - ;                       ",
"                        ; @ O . . $ i d                     d i @ . . o @ -                         ",
"                            @ X . . X t 0                 0 t X . . @ @                             ",
"                              @ O @     7 .             . &     @ @ @                               ",
"                                  @ @                         @ @                                   ",
"                                                                                                    ",
"                                                                                                    ",
"                                                                                                    ",
"                                                                                                    "
};
